# xmcd
#
# Track frame offsets:
#	150
#	14260
#	26377
#	35775
#	48117
#	60655
#	75005
#	88025
#	97977
#	111905
#	120407
#	131005
#
# Disc length: 1867 seconds
#
# Revision: 0
# Processed by: cddbd v1.5.1PL2 Copyright (c) Steve Scherf et al.
# Submitted via: dBpowerAMP V4.0
#
DISCID=8707490c
DTITLE=Maddox Brothers and Rose - A Collection Of Standard Sacred Songs
DYEAR=1900
DGENRE=Country
TTITLE0=Tramp On The Street
TTITLE1=Just Steal Away And Pray
TTITLE2=I'd Rather Have Jesus
TTITLE3=When God Dips His Love In My Heart
TTITLE4=Farther Along
TTITLE5=The Unclouded Day
TTITLE6=Flowers For the Master's Bouquet
TTITLE7=I'll Fly Away
TTITLE8=In The Land Where We'll Never Grow Old
TTITLE9=Dust On The Bible
TTITLE10=I'll Be No Stranger There
TTITLE11=He Set Me Free
EXTD=
EXTT0=
EXTT1=
EXTT2=
EXTT3=
EXTT4=
EXTT5=
EXTT6=
EXTT7=
EXTT8=
EXTT9=
EXTT10=
EXTT11=
PLAYORDER=
